<?xml version="1.0" standalone="no"?>
<!DOCTYPE svg PUBLIC "-//W3C//DTD SVG 20010904//EN"
 "http://www.w3.org/TR/2001/REC-SVG-20010904/DTD/svg10.dtd">
<svg version="1.0" xmlns="http://www.w3.org/2000/svg"
 width="1254.000000pt" height="1254.000000pt" viewBox="0 0 1254.000000 1254.000000"
 preserveAspectRatio="xMidYMid meet">

<g transform="translate(0.000000,1254.000000) scale(0.100000,-0.100000)"
fill="#ffffff" stroke="none">
<path d="M0 6270 l0 -6270 6270 0 6270 0 0 6270 0 6270 -6270 0 -6270 0 0
-6270z m6192 3826 c-18 -6 -30 -15 -25 -19 4 -5 -1 -5 -11 -1 -13 5 -17 4 -12
-4 5 -8 1 -10 -11 -5 -14 5 -10 10 22 25 22 9 47 17 55 17 8 0 0 -6 -18 -13z
m368 -22 c0 -2 -7 -4 -15 -4 -8 0 -15 4 -15 10 0 5 7 7 15 4 8 -4 15 -8 15
-10z m-487 -46 c-6 -7 -9 -21 -8 -30 3 -14 0 -16 -15 -8 -14 8 -19 5 -23 -11
-3 -12 -10 -18 -16 -15 -11 7 -4 36 9 36 4 0 17 9 30 20 26 23 38 26 23 8z
m598 -45 c13 -16 12 -17 -3 -4 -10 7 -18 15 -18 17 0 8 8 3 21 -13z m-671 -37
c0 -23 -26 -77 -33 -70 -4 4 -2 13 4 20 6 7 9 19 6 26 -2 7 -14 -8 -25 -33
-11 -26 -25 -50 -31 -53 -6 -4 -11 -13 -11 -19 0 -7 11 0 24 15 17 19 27 23
35 15 8 -8 11 -8 11 2 0 16 17 5 31 -21 9 -18 8 -19 -10 -13 -21 6 -21 5 -21
-194 0 -127 4 -201 10 -201 6 0 10 -18 10 -40 0 -33 -3 -40 -20 -40 -17 0 -20
-7 -20 -40 0 -33 3 -40 20 -40 17 0 20 -7 20 -40 0 -22 -4 -40 -10 -40 -6 0
-10 -33 -10 -80 0 -61 3 -80 14 -80 18 0 34 -152 17 -158 -7 -2 -11 -39 -11
-100 0 -91 -2 -101 -35 -164 -19 -38 -31 -68 -28 -68 4 0 2 -5 -5 -12 -7 -7
-12 -23 -12 -36 0 -13 -18 -50 -40 -83 -23 -33 -43 -72 -44 -87 -2 -15 -17
-54 -32 -87 -15 -33 -28 -66 -27 -72 0 -7 -3 -10 -8 -7 -5 3 -9 -1 -9 -9 0 -7
-8 -22 -19 -33 -10 -11 -21 -37 -25 -57 -4 -20 -11 -37 -16 -37 -5 0 -6 -7 -3
-17 4 -10 2 -14 -4 -10 -7 4 -13 -7 -17 -27 -4 -19 -18 -50 -31 -70 -14 -20
-25 -45 -25 -56 0 -29 -11 -50 -26 -50 -8 0 -14 -3 -14 -7 0 -8 -41 -58 -93
-113 -13 -14 -34 -32 -47 -40 -13 -8 -31 -23 -41 -32 -10 -9 -27 -21 -38 -28
-12 -6 -21 -17 -21 -25 0 -8 -6 -15 -13 -15 -7 0 -32 -9 -55 -20 -22 -11 -46
-20 -51 -20 -6 0 -15 -8 -20 -18 -5 -10 -29 -24 -52 -31 -23 -7 -51 -21 -62
-32 -11 -10 -27 -19 -34 -19 -7 0 -13 -4 -13 -9 0 -5 -8 -11 -17 -14 -10 -4
-49 -24 -88 -46 -38 -22 -88 -50 -110 -62 -22 -12 -53 -31 -70 -43 -16 -11
-38 -22 -49 -23 -11 -2 -35 -15 -53 -29 -19 -14 -30 -19 -27 -10 3 8 1 17 -5
20 -6 4 -13 -5 -17 -19 -3 -14 -10 -25 -16 -25 -5 0 -7 -4 -4 -8 3 -5 -4 -16
-15 -25 -10 -9 -19 -15 -19 -13 0 5 61 138 130 281 29 61 208 423 398 805 189
382 457 922 594 1199 138 278 264 526 280 553 29 48 48 61 48 34z m700 4 c0
-5 -2 -10 -4 -10 -3 0 -8 5 -11 10 -3 6 -1 10 4 10 6 0 11 -4 11 -10z m30 -40
c6 -11 8 -20 6 -20 -3 0 -10 9 -16 20 -6 11 -8 20 -6 20 3 0 10 -9 16 -20z
m35 -62 l16 -33 -20 25 c-20 24 -26 40 -16 40 2 0 12 -15 20 -32z m54 -113 c0
-5 -6 1 -14 15 -8 14 -14 30 -14 35 0 6 6 -1 14 -15 8 -14 14 -29 14 -35z m26
-46 c9 -17 15 -34 13 -39 -2 -5 -11 9 -20 30 -20 47 -15 53 7 9z m733 -1464
c-3 -3 -9 2 -12 12 -6 14 -5 15 5 6 7 -7 10 -15 7 -18z m52 -95 c0 -8 -9 2
-20 23 -26 48 -26 61 0 22 11 -16 20 -37 20 -45z m35 -60 c3 -5 1 -10 -4 -10
-6 0 -11 5 -11 10 0 6 2 10 4 10 3 0 8 -4 11 -10z m88 -172 c41 -79 129 -249
194 -378 66 -129 156 -305 200 -390 76 -147 93 -199 55 -168 -13 11 -15 10 -9
-4 7 -21 -3 -23 -22 -5 -11 10 -13 10 -7 0 5 -8 1 -13 -11 -13 -10 0 -29 -3
-42 -7 -17 -4 -22 -3 -17 5 4 7 1 12 -8 12 -9 0 -22 15 -30 33 -8 17 -27 44
-43 58 -28 26 -93 143 -93 169 0 8 -9 23 -20 34 -10 12 -26 46 -34 76 -8 30
-24 72 -35 94 -11 21 -25 63 -31 92 -6 30 -18 61 -26 68 -8 9 -15 36 -15 63
-1 26 -8 63 -16 82 -20 46 -24 159 -5 166 11 4 11 8 -2 21 -9 8 -16 21 -16 27
0 7 -9 1 -19 -12 l-18 -23 2 29 c1 16 5 35 10 43 5 8 4 11 -2 7 -14 -9 -29 12
-31 41 -2 46 19 18 91 -120z m902 -296 c18 -86 37 -127 68 -144 12 -6 57 -22
101 -33 l79 -21 -59 -13 c-66 -15 -133 -46 -151 -70 -10 -14 -28 -74 -49 -166
-6 -27 -8 -21 -25 48 -10 42 -26 91 -34 108 -19 36 -73 63 -160 81 l-60 12 74
18 c131 32 158 60 183 190 7 37 14 66 15 64 1 -1 9 -35 18 -74z m-2786 -617
c107 -7 263 -37 392 -76 166 -49 335 -122 694 -299 549 -271 764 -352 1040
-389 102 -15 353 -15 441 -1 240 37 460 137 617 279 l38 34 -20 -51 c-39 -98
-124 -258 -177 -332 -62 -86 -111 -145 -96 -115 9 17 7 21 -8 21 -11 0 -16 -5
-12 -15 4 -11 1 -13 -12 -8 -14 5 -17 3 -13 -8 4 -8 2 -17 -3 -20 -6 -4 -10
-2 -10 3 0 12 -109 6 -220 -13 -202 -34 -386 -45 -515 -32 -38 4 -88 7 -110 7
-37 0 -186 21 -245 34 -14 4 -42 9 -63 11 -21 3 -46 10 -55 15 -9 5 -51 19
-92 30 -41 12 -95 31 -120 41 -25 11 -54 21 -65 23 -24 5 -134 44 -156 55 -8
5 -47 21 -85 36 -38 15 -79 36 -90 47 -12 11 -28 21 -35 22 -30 5 -59 18 -59
25 0 5 -32 23 -72 41 -40 17 -77 37 -83 44 -5 7 -26 19 -45 26 -19 7 -43 21
-52 31 -9 9 -34 23 -55 29 -21 7 -49 21 -63 30 -43 29 -138 80 -151 80 -7 0
-46 16 -87 35 -41 20 -95 41 -121 47 -25 6 -68 19 -96 29 -27 9 -70 23 -95 29
-25 7 -54 16 -65 21 -79 33 -486 65 -605 48 -148 -22 -253 -49 -280 -74 -10
-9 -24 -13 -35 -9 -13 5 -16 4 -11 -5 6 -9 2 -12 -10 -10 -11 2 -34 -5 -53
-15 -28 -15 -38 -16 -54 -6 -12 7 -16 7 -12 1 3 -6 1 -11 -5 -11 -7 0 -10 -7
-6 -15 5 -13 2 -14 -15 -4 -13 7 -19 7 -15 1 3 -6 -4 -14 -16 -18 -13 -4 -25
-10 -28 -13 -5 -7 -81 -59 -110 -75 -20 -12 -9 -2 62 58 32 26 62 44 68 41 6
-4 9 -1 8 6 -8 34 285 200 455 258 157 55 412 94 552 85 28 -2 88 -6 134 -9z
m2311 -1425 c-8 -5 -19 -10 -25 -10 -5 0 -3 5 5 10 8 5 20 10 25 10 6 0 3 -5
-5 -10z m-257 -77 c-7 -2 -21 -2 -30 0 -10 3 -4 5 12 5 17 0 24 -2 18 -5z
m-56 -9 c-3 -3 -12 -4 -19 -1 -8 3 -5 6 6 6 11 1 17 -2 13 -5z m-5119 -1219
c71 -143 182 -365 246 -492 l116 -233 -70 0 c-49 0 -70 4 -71 13 0 6 -80 174
-178 372 l-178 360 -28 -55 c-34 -65 -211 -430 -283 -582 l-51 -108 -65 0 -65
0 93 193 c189 390 396 801 401 796 1 -2 61 -121 133 -264z m4383 255 c126 -23
266 -123 332 -237 109 -190 84 -440 -61 -596 -110 -119 -223 -162 -400 -155
-100 4 -115 7 -186 41 -175 83 -279 250 -279 452 -1 143 49 264 147 360 122
119 279 166 447 135z m3091 -477 c132 -269 242 -491 245 -495 2 -5 -26 -8 -64
-7 l-68 0 -58 122 c-187 397 -299 619 -308 610 -5 -5 -87 -171 -183 -369
l-174 -359 -66 -3 -66 -3 57 118 c143 295 433 873 439 873 3 0 114 -219 246
-487z m-1490 434 c172 -85 230 -302 122 -465 -36 -55 -107 -109 -156 -119 -16
-3 -28 -9 -28 -14 0 -8 34 -53 178 -239 l73 -95 -62 -3 c-34 -2 -68 -1 -75 2
-7 3 -67 77 -134 165 l-120 161 -110 0 -110 0 0 45 c0 27 5 47 13 50 6 3 82 8
168 13 150 8 159 9 205 37 64 40 89 90 89 175 0 83 -26 135 -86 172 -60 37
-126 48 -295 48 l-144 0 0 -435 0 -435 -60 0 -60 0 0 483 c0 266 2 486 4 488
2 2 123 2 268 -1 263 -5 263 -5 320 -33z m-4962 -240 c0 -154 5 -299 11 -332
33 -180 156 -273 347 -263 124 6 204 51 259 145 46 79 53 134 53 441 l0 282
61 0 61 0 -5 -307 c-4 -325 -8 -357 -57 -458 -91 -189 -359 -272 -592 -185
-112 42 -211 164 -238 293 -5 29 -11 187 -13 355 l-2 302 58 0 57 0 0 -273z
m2022 240 c121 -60 185 -172 176 -311 -9 -132 -84 -230 -212 -276 l-28 -10 28
-38 c38 -51 160 -208 202 -259 l34 -43 -74 0 -75 0 -124 165 -124 164 -108 1
-108 0 3 53 3 52 140 3 c77 1 154 5 171 7 48 8 113 60 135 108 35 79 17 201
-37 249 -11 10 -42 27 -69 40 -45 20 -66 22 -225 22 l-175 1 -3 -432 -2 -433
-55 0 -55 0 0 486 0 485 263 -3 262 -3 57 -28z m4211 -746 c44 -17 53 -91 15
-123 -72 -62 -160 40 -93 107 26 27 41 30 78 16z m-7386 -137 c-3 -3 -12 -4
-19 -1 -8 3 -5 6 6 6 11 1 17 -2 13 -5z m1448 -533 c18 -53 19 -65 4 -55 -9 5
-10 -1 -5 -22 12 -46 -1 -24 -29 49 -30 81 -30 76 -5 74 14 -1 24 -14 35 -46z
m189 -38 c19 -58 24 -88 18 -100 -8 -13 -14 -4 -32 46 -13 34 -26 58 -30 54
-4 -4 -15 -30 -25 -58 -10 -27 -22 -54 -27 -60 -6 -6 -6 -2 -2 9 5 13 4 17 -4
12 -7 -4 -12 -3 -12 2 0 7 36 117 54 168 2 6 11 11 19 11 9 0 24 -30 41 -84z
m156 76 c0 -14 -62 -179 -67 -179 -3 0 -3 7 1 15 3 8 1 15 -4 15 -6 0 -10 -5
-10 -12 0 -6 -2 -9 -5 -6 -4 4 21 88 49 164 5 12 36 15 36 3z m363 -2 c27 -2
20 -15 -13 -22 -30 -7 -35 -20 -33 -82 1 -7 -3 -10 -7 -8 -5 3 -12 -16 -15
-42 -11 -85 -13 -80 -14 46 l-1 123 33 -6 c17 -4 40 -8 50 -9z m512 5 c30 -3
3 -23 -33 -24 -27 -1 -30 -4 -35 -42 -6 -46 4 -58 44 -53 14 2 31 -3 38 -10
10 -11 2 -13 -39 -13 -43 0 -50 -3 -50 -20 0 -11 -4 -20 -9 -20 -6 0 -12 -15
-14 -32 -2 -18 -5 24 -5 94 l-2 127 43 -3 c23 -2 51 -4 62 -4z m891 -8 c19 -9
34 -20 34 -25 0 -17 -21 -20 -42 -5 -32 23 -91 20 -114 -5 -23 -26 -10 -49 37
-66 19 -7 27 -12 19 -13 -10 -1 -9 -4 5 -10 17 -7 16 -9 -10 -9 -16 -1 -45 8
-63 19 -29 18 -33 25 -30 58 3 31 9 40 38 54 44 22 82 23 126 2z m404 7 c0
-12 -50 -21 -69 -13 -10 5 -1 9 24 13 22 3 41 7 43 8 1 0 2 -3 2 -8z m399 -73
c-1 -57 -4 -75 -9 -58 -7 21 -8 18 -10 -20 l-3 -45 -7 50 c-5 28 -9 74 -9 103
-1 46 1 52 19 52 18 0 20 -6 19 -82z m520 54 c1 12 13 17 56 20 31 1 64 0 73
-4 13 -5 13 -7 2 -7 -8 -1 0 -13 20 -30 42 -35 53 -31 19 6 -24 28 -24 28 -1
8 26 -22 52 -63 33 -51 -6 4 -11 2 -11 -5 0 -6 -9 0 -20 14 -23 29 -68 46
-122 45 l-38 0 -1 -76 c-1 -43 -4 -66 -8 -52 -4 17 -8 1 -12 -45 -4 -53 -6
-36 -6 70 -1 83 2 130 7 115 5 -15 8 -18 9 -8z m531 -58 c0 -49 -4 -83 -9 -80
-5 4 -12 0 -14 -6 -3 -7 -6 29 -6 80 -1 75 2 92 14 92 12 0 15 -16 15 -86z
m474 72 c18 -7 42 -26 54 -41 23 -29 31 -82 10 -69 -8 5 -9 2 -5 -9 3 -10 3
-17 -1 -17 -4 0 -13 20 -21 44 -8 27 -21 48 -36 56 -14 7 -22 16 -20 20 8 13
-73 -7 -99 -24 -14 -9 -28 -27 -32 -41 -6 -25 -24 -35 -24 -13 0 6 -3 9 -6 6
-3 -4 0 -16 6 -28 10 -18 9 -25 -4 -38 -15 -15 -16 -13 -16 23 0 108 95 172
194 131z m-3132 -13 c20 -18 25 -78 8 -88 -7 -4 -9 2 -4 18 3 14 1 34 -5 44
-9 15 -10 13 -6 -12 5 -29 5 -29 -5 -5 -6 13 -16 28 -23 33 -8 6 -6 7 6 3 9
-3 17 0 17 5 0 7 -11 9 -25 7 -14 -3 -25 -1 -25 3 0 15 43 10 62 -8z m1118 7
c0 -5 -4 -10 -10 -10 -5 0 -10 5 -10 10 0 6 5 10 10 10 6 0 10 -4 10 -10z
m130 0 c0 -5 -7 -7 -15 -4 -8 4 -15 8 -15 10 0 2 7 4 15 4 8 0 15 -4 15 -10z
m65 0 c-3 -5 -14 -10 -23 -10 -15 0 -15 2 -2 10 20 13 33 13 25 0z m495 -67
c0 -81 -13 -148 -31 -159 -8 -4 -7 0 0 14 14 26 15 54 1 32 -7 -11 -8 -6 -5
15 2 17 4 63 4 103 1 57 4 72 16 72 12 0 15 -15 15 -77z m-589 -20 c-3 -44 -7
-65 -9 -48 -5 30 -5 30 -12 5 -5 -17 -8 -3 -11 48 -4 67 -3 72 16 72 19 0 20
-5 16 -77z m1106 -45 c-3 -7 -5 -2 -5 12 0 14 2 19 5 13 2 -7 2 -19 0 -25z
m-2847 14 c0 -5 -27 -10 -61 -11 -34 -1 -58 2 -55 7 7 12 116 15 116 4z m17
-14 c-3 -8 -6 -5 -6 6 -1 11 2 17 5 13 3 -3 4 -12 1 -19z m4238 14 l-20 -5 20
-8 c13 -5 -11 -8 -62 -8 -67 -1 -83 2 -83 14 0 12 15 15 83 14 45 -1 73 -4 62
-7z m-2904 -19 c13 -17 13 -17 -6 -3 -11 8 -22 16 -24 17 -2 2 0 3 6 3 6 0 17
-8 24 -17z m0 -57 c1 -15 4 -12 9 9 7 29 8 29 9 4 0 -14 -7 -33 -17 -42 -18
-16 -18 -15 -14 12 2 16 -1 39 -8 52 -11 23 -10 23 4 5 9 -11 17 -29 17 -40z
m776 12 c-3 -7 -5 -2 -5 12 0 14 2 19 5 13 2 -7 2 -19 0 -25z m1359 2 c0 -12
-4 -16 -9 -11 -5 5 -6 14 -3 20 10 15 12 14 12 -9z m-2939 -22 c-3 -8 -6 -5
-6 6 -1 11 2 17 5 13 3 -3 4 -12 1 -19z m2303 12 c0 -17 -26 -29 -40 -18 -12
8 -11 9 4 4 13 -4 17 -2 13 7 -3 8 1 14 9 14 8 0 14 -4 14 -7z m675 -10 c10
-11 16 -20 13 -20 -3 0 -13 9 -23 20 -10 11 -16 20 -13 20 3 0 13 -9 23 -20z
m151 -8 c-17 -16 -18 -16 -5 5 7 12 15 20 18 17 3 -2 -3 -12 -13 -22z m-2506
4 c0 -3 -4 -8 -10 -11 -5 -3 -10 -1 -10 4 0 6 5 11 10 11 6 0 10 -2 10 -4z
m-635 -26 c-3 -5 -11 -10 -16 -10 -6 0 -7 5 -4 10 3 6 11 10 16 10 6 0 7 -4 4
-10z m1673 -1 c9 0 2 -5 -16 -10 -21 -7 -38 -6 -50 1 -13 8 -11 9 13 4 24 -4
27 -3 15 6 -13 10 -12 11 3 6 10 -3 26 -6 35 -7z m-471 -15 c-3 -3 -12 -4 -19
-1 -8 3 -5 6 6 6 11 1 17 -2 13 -5z m1440 0 c-3 -3 -12 -4 -19 -1 -8 3 -5 6 6
6 11 1 17 -2 13 -5z"/>
<path d="M5955 9820 c3 -5 8 -10 11 -10 2 0 4 5 4 10 0 6 -5 10 -11 10 -5 0
-7 -4 -4 -10z"/>
<path d="M5889 9773 c-9 -16 -19 -41 -22 -58 -6 -29 -6 -29 4 -5 6 14 15 35
20 48 5 13 14 20 19 17 6 -3 7 1 4 9 -8 20 -7 21 -25 -11z"/>
<path d="M5892 9730 c-5 -19 -6 -39 -3 -45 3 -5 9 6 12 25 4 19 7 26 8 15 2
-11 5 -15 7 -8 3 7 1 20 -4 30 -9 15 -12 12 -20 -17z"/>
<path d="M5807 9613 c-4 -3 -7 -11 -7 -17 0 -6 5 -5 12 2 6 6 9 14 7 17 -3 3
-9 2 -12 -2z"/>
<path d="M5826 9582 c-2 -4 -1 -14 4 -22 7 -11 9 -9 7 8 -1 24 -3 26 -11 14z"/>
<path d="M5790 9571 c0 -6 4 -13 10 -16 6 -3 7 1 4 9 -7 18 -14 21 -14 7z"/>
<path d="M5785 9527 c0 -14 6 -23 16 -23 15 0 15 3 2 23 -9 13 -16 23 -17 23
0 0 -1 -10 -1 -23z"/>
<path d="M5686 9353 c-6 -14 -5 -15 5 -6 7 7 10 15 7 18 -3 3 -9 -2 -12 -12z"/>
<path d="M5980 8900 c0 -22 5 -40 10 -40 6 0 10 18 10 40 0 22 -4 40 -10 40
-5 0 -10 -18 -10 -40z"/>
<path d="M7843 7649 c-2 -23 3 -25 10 -4 4 8 3 16 -1 19 -4 3 -9 -4 -9 -15z"/>
<path d="M7923 7440 c3 -16 21 -14 25 2 3 10 2 10 -6 -1 -7 -9 -11 -10 -15 -2
-4 7 -5 8 -4 1z"/>
<path d="M8087 7166 c-10 -26 -8 -33 4 -16 9 12 10 10 5 -9 -3 -18 -2 -21 6
-13 8 8 8 18 1 34 -8 19 -10 20 -16 4z"/>
<path d="M8110 7113 c0 -19 21 -27 33 -13 9 10 9 11 -2 5 -8 -4 -17 -2 -22 6
-6 9 -9 10 -9 2z"/>
<path d="M6945 4396 c-119 -29 -202 -99 -259 -216 -28 -59 -31 -74 -31 -165 0
-91 3 -106 31 -165 38 -80 105 -149 182 -187 52 -26 67 -28 167 -28 106 0 112
1 173 34 74 40 134 104 171 181 23 49 26 68 26 165 0 100 -3 116 -29 172 -50
108 -156 190 -275 213 -66 12 -92 12 -156 -4z"/>
<path d="M6160 3076 c0 -3 9 -10 20 -16 11 -6 20 -8 20 -6 0 3 -9 10 -20 16
-11 6 -20 8 -20 6z"/>
<path d="M8438 3083 c7 -3 16 -2 19 1 4 3 -2 6 -13 5 -11 0 -14 -3 -6 -6z"/>
</g>
</svg>
